<?xml version="1.0" standalone="no"?>
<!DOCTYPE svg PUBLIC "-//W3C//DTD SVG 20010904//EN"
 "http://www.w3.org/TR/2001/REC-SVG-20010904/DTD/svg10.dtd">
<svg version="1.0" xmlns="http://www.w3.org/2000/svg"
 width="65.000000pt" height="65.000000pt" viewBox="0 0 920.000000 512.000000"
 preserveAspectRatio="xMidYMid meet">
<metadata>
Created by potrace 1.16, written by Peter Selinger 2001-2019
</metadata>
<g transform="translate(0.000000,512.000000) scale(0.100000,-0.100000)"
fill="#000000" stroke="none">
<path d="M4258 4785 c-947 -115 -1709 -818 -1868 -1722 -39 -221 -37 -550 5
-798 9 -49 46 -210 82 -357 56 -225 69 -268 87 -276 12 -5 772 -310 1690 -677
l1669 -667 459 459 458 460 0 114 c-1 352 -88 1076 -186 1529 -236 1101 -970
1841 -1924 1940 -127 13 -341 11 -472 -5z m553 -331 c498 -80 906 -367 1209
-849 52 -81 130 -226 130 -240 0 -3 -363 -5 -806 -5 l-807 0 -50 36 c-123 88
-264 130 -406 121 -165 -11 -297 -72 -417 -193 -201 -203 -240 -516 -97 -764
86 -148 256 -271 423 -306 87 -18 216 -14 294 11 l49 15 51 -41 c373 -298 758
-545 1151 -739 253 -124 438 -200 659 -267 l156 -48 -256 -256 -256 -256 -131
52 c-73 28 -753 300 -1513 604 l-1380 552 -23 92 c-91 367 -105 466 -104 722
0 207 11 306 54 465 78 294 255 591 476 800 325 308 708 475 1183 514 81 7
317 -5 411 -20z m-556 -1288 c196 -89 243 -358 90 -511 -121 -120 -329 -120
-450 0 -120 120 -120 329 -1 448 94 95 238 120 361 63z m2025 -129 c0 -1 9
-34 20 -72 59 -203 168 -862 199 -1205 21 -232 23 -280 14 -280 -5 0 -65 15
-134 34 -426 117 -936 369 -1424 704 -123 85 -345 250 -345 257 0 3 20 34 44
69 94 137 126 307 90 469 l-6 27 771 0 c424 0 771 -1 771 -3z"/>
<path d="M4055 3026 c-101 -44 -125 -178 -46 -257 112 -113 296 -12 267 146
-18 94 -131 151 -221 111z"/>
</g>
</svg>
