<?xml version="1.0" standalone="no"?>
<!DOCTYPE svg PUBLIC "-//W3C//DTD SVG 20010904//EN"
 "http://www.w3.org/TR/2001/REC-SVG-20010904/DTD/svg10.dtd">
<svg version="1.0" xmlns="http://www.w3.org/2000/svg"
 width="50.000000pt" height="50.000000pt" viewBox="0 0 512.000000 512.000000"
 preserveAspectRatio="xMidYMid meet">
<metadata>
Created by potrace 1.16, written by Peter Selinger 2001-2019
</metadata>
<g transform="translate(0.000000,512.000000) scale(0.100000,-0.100000)"
fill="#000000" stroke="none">
<path d="M1385 4789 c-331 -71 -469 -109 -577 -158 -135 -62 -661 -349 -703
-384 -27 -23 -56 -61 -76 -102 -30 -61 -31 -69 -26 -147 4 -69 15 -109 62
-233 32 -86 66 -160 80 -175 26 -25 70 -31 130 -16 31 8 31 7 68 -74 l37 -82
-25 -30 c-59 -70 -8 -168 88 -168 31 0 35 -5 74 -83 39 -79 40 -84 22 -95 -10
-7 -22 -26 -27 -44 -20 -78 21 -138 94 -138 l44 0 40 -81 41 -80 -26 -30 c-36
-43 -34 -98 3 -141 25 -27 36 -31 75 -31 l46 0 37 -84 37 -83 -24 -26 c-62
-67 1 -185 93 -172 25 4 30 -3 96 -139 l70 -144 -14 -46 c-8 -26 -14 -90 -14
-148 l0 -102 -144 -96 c-131 -87 -146 -100 -170 -148 -26 -52 -26 -56 -26
-260 l0 -207 28 -53 c17 -34 44 -65 71 -84 l43 -30 260 -5 260 -5 90 -155 c96
-167 123 -201 180 -231 35 -18 67 -19 675 -19 600 0 643 1 720 20 194 46 364
159 484 321 l51 68 288 3 288 3 43 30 c27 19 54 50 71 84 28 53 28 54 28 250
0 108 -4 211 -10 230 -18 65 -54 100 -192 192 l-138 92 0 102 c0 59 -6 122
-14 149 l-14 47 70 142 c66 135 72 143 97 139 91 -13 154 106 91 173 l-23 24
37 84 38 84 45 0 c39 0 50 5 75 31 37 43 39 98 3 141 l-26 30 41 80 40 81 43
0 c58 0 98 39 99 97 0 39 -25 93 -43 93 -5 0 10 38 33 85 41 81 44 85 76 85
95 0 146 98 87 168 l-25 30 37 82 c36 81 37 82 67 74 57 -14 107 -7 132 18 13
13 48 88 80 173 46 123 57 165 61 233 5 78 4 86 -26 147 -20 41 -49 79 -76
102 -42 35 -544 310 -691 378 -119 56 -245 90 -595 164 -373 79 -440 85 -533
50 -39 -14 -69 -35 -103 -73 -43 -46 -55 -72 -111 -227 -34 -96 -63 -182 -62
-192 1 -47 62 -107 110 -107 8 0 10 -8 6 -22 -3 -13 -13 -55 -22 -94 l-17 -71
-71 32 c-125 57 -193 70 -366 70 -173 0 -241 -13 -366 -70 l-71 -32 -17 71
c-9 39 -19 81 -22 94 -4 14 -2 22 6 22 48 0 109 60 110 107 1 10 -28 96 -62
192 -56 155 -68 181 -111 227 -34 38 -64 59 -103 73 -94 36 -176 28 -539 -50z
m2356 -218 c304 -65 403 -93 510 -147 241 -120 617 -329 636 -352 13 -15 23
-38 23 -52 0 -36 -61 -210 -74 -210 -6 0 -385 137 -842 303 l-831 302 34 95
c38 106 53 127 97 138 35 10 50 7 447 -77z m-1877 57 c16 -14 39 -60 59 -118
l34 -95 -218 -79 c-246 -89 -264 -100 -264 -173 0 -38 5 -49 33 -74 20 -18 43
-29 62 -29 16 0 91 22 167 50 89 32 139 46 143 39 10 -15 44 -168 39 -172 -2
-2 -297 -110 -654 -240 -358 -130 -657 -238 -665 -242 -11 -4 -27 17 -57 79
l-42 85 57 22 c31 11 87 31 123 44 99 34 129 53 144 89 28 67 -21 146 -90 146
-17 0 -123 -34 -235 -75 -112 -41 -208 -75 -214 -75 -14 0 -76 174 -76 210 0
14 10 37 23 52 31 39 649 365 768 406 114 39 713 170 786 171 41 1 57 -4 77
-21z m2056 -713 c371 -135 681 -247 688 -250 8 -3 0 -30 -30 -90 -32 -63 -47
-84 -58 -79 -8 3 -307 112 -665 242 -357 129 -652 237 -654 239 -6 4 35 183
42 183 1 0 306 -110 677 -245z m-1200 20 c36 -9 103 -34 150 -57 69 -34 103
-60 176 -133 75 -74 99 -106 132 -175 53 -109 72 -191 72 -311 0 -269 -144
-500 -385 -619 -108 -54 -190 -73 -305 -73 -115 0 -197 19 -305 73 -241 119
-385 350 -385 619 0 120 19 202 72 311 33 69 57 101 132 175 144 144 283 203
481 204 57 0 128 -6 165 -14z m-960 -250 c0 -3 -11 -28 -25 -54 -13 -27 -32
-76 -41 -109 l-17 -60 -459 -167 c-252 -92 -460 -166 -462 -164 -12 16 -75
163 -72 166 5 5 1057 391 1069 392 4 1 7 -1 7 -4z m2154 -194 c284 -104 519
-191 521 -193 4 -4 -60 -155 -71 -167 -2 -2 -210 72 -462 164 l-459 167 -17
60 c-9 32 -27 82 -41 110 -14 29 -25 53 -25 56 0 5 -6 7 554 -197z m-2241
-431 c2 -23 -13 -30 -348 -152 -192 -70 -360 -131 -373 -134 -20 -6 -26 2 -62
77 -21 46 -36 85 -32 87 4 1 185 67 402 146 l395 144 8 -71 c4 -40 9 -83 10
-97z m2292 -13 c143 -53 270 -99 283 -104 l22 -9 -40 -83 c-36 -74 -43 -82
-63 -77 -12 3 -179 64 -372 134 -335 123 -350 129 -348 152 2 14 6 57 9 97 l7
71 121 -43 c66 -24 238 -86 381 -138z m-2158 -288 c52 -78 52 -80 30 -89 -49
-22 -712 -260 -722 -260 -11 0 -92 157 -84 164 4 4 709 263 719 264 3 1 29
-35 57 -79z m1933 -56 c190 -69 347 -127 349 -129 8 -7 -73 -164 -84 -164 -10
0 -673 238 -722 260 -22 9 -22 11 30 89 36 56 57 78 67 75 8 -3 170 -62 360
-131z m-1615 -240 c11 -8 14 -13 6 -13 -7 0 -192 -103 -411 -230 -219 -126
-403 -230 -407 -230 -5 0 -32 50 -61 111 -45 96 -49 111 -34 117 9 3 197 72
417 153 l400 146 35 -20 c19 -11 44 -27 55 -34z m1767 -242 l27 -10 -51 -111
c-28 -60 -55 -110 -60 -110 -5 0 -188 104 -407 230 -219 127 -404 230 -412
230 -8 0 10 15 39 34 l53 33 392 -143 c216 -78 404 -147 419 -153z m-558 -208
c226 -130 423 -245 439 -255 l27 -19 0 -143 c0 -98 4 -147 13 -159 6 -10 82
-64 167 -120 l155 -103 3 -167 2 -167 -211 0 -211 0 6 24 c85 341 -66 723
-363 914 -140 91 -289 133 -466 133 -124 0 -221 -18 -326 -61 -72 -30 -194
-105 -218 -133 -19 -23 -24 -22 -81 17 -93 64 -151 80 -280 81 -129 0 -191
-17 -274 -74 -145 -100 -217 -237 -217 -414 -1 -157 67 -297 188 -389 91 -68
157 -90 284 -96 l106 -4 13 -42 c33 -109 132 -266 218 -344 l35 -32 -271 0
-272 0 -17 27 c-10 15 -61 101 -113 193 -79 135 -102 168 -130 182 -31 16 -68
18 -298 18 l-262 0 2 167 3 167 155 103 c85 56 161 110 167 120 9 12 13 61 13
160 l0 143 27 17 c15 10 212 125 438 255 l410 237 364 1 364 0 411 -237z
m-358 -274 c248 -34 453 -206 530 -443 22 -67 27 -100 27 -191 0 -95 -4 -122
-29 -195 -70 -208 -243 -371 -454 -425 -82 -21 -225 -21 -305 0 -511 133 -657
780 -251 1114 109 89 220 131 393 150 6 0 46 -4 89 -10z m-895 -104 c24 -8 57
-25 73 -38 l28 -23 -42 -84 c-50 -100 -90 -248 -90 -336 l0 -64 -62 0 c-247 0
-371 296 -200 473 78 81 187 108 293 72z"/>
<path d="M1079 4081 c-23 -23 -29 -38 -29 -71 0 -118 177 -141 206 -26 3 14 3
38 0 52 -19 76 -120 102 -177 45z"/>
<path d="M2423 3641 c-104 -39 -180 -107 -231 -211 -25 -50 -27 -65 -27 -170
0 -107 2 -119 29 -175 59 -120 172 -203 303 -224 175 -28 350 63 429 224 27
56 29 68 29 175 0 107 -2 119 -29 175 -38 77 -115 153 -191 190 -80 39 -230
46 -312 16z m233 -216 c151 -88 115 -309 -58 -355 -110 -30 -227 67 -228 189
0 149 159 241 286 166z"/>
<path d="M2684 1176 c-26 -26 -34 -42 -34 -71 0 -29 8 -45 34 -71 l34 -34 171
0 c219 0 251 13 251 105 0 92 -32 105 -251 105 l-171 0 -34 -34z"/>
</g>
</svg>
