<?xml version="1.0" standalone="no"?>
<!DOCTYPE svg PUBLIC "-//W3C//DTD SVG 20010904//EN"
 "http://www.w3.org/TR/2001/REC-SVG-20010904/DTD/svg10.dtd">
<svg version="1.0" xmlns="http://www.w3.org/2000/svg"
 width="300.000000pt" height="60.000000pt" viewBox="0 0 280.000000 144.000000"
 preserveAspectRatio="xMidYMid meet">
<metadata>
Created by potrace 1.16, written by Peter Selinger 2001-2019
</metadata>
<g transform="translate(0.000000,144.000000) scale(0.100000,-0.100000)"
fill="#000000" stroke="none">
<path d="M1264 1099 c-4 -7 1 -16 10 -21 25 -14 24 -203 -1 -217 -26 -14 -8
-25 34 -23 44 3 49 7 36 24 -13 16 -23 147 -13 153 5 3 14 -11 21 -32 22 -68
61 -144 72 -140 8 2 38 69 73 162 5 13 9 -7 11 -54 2 -43 0 -78 -7 -85 -19
-19 -10 -26 30 -26 40 0 49 7 31 26 -15 14 -16 207 -2 212 6 2 11 10 11 18 0
11 -9 14 -32 12 -32 -3 -35 -7 -73 -101 -21 -53 -43 -96 -49 -94 -5 2 -17 25
-27 53 -9 27 -26 70 -38 97 -18 41 -24 47 -50 47 -16 0 -33 -5 -37 -11z"/>
<path d="M201 548 c-6 -29 -17 -88 -24 -130 l-15 -78 37 0 c27 0 32 3 21 10
-13 9 -13 11 0 20 9 6 10 10 3 10 -7 0 -17 -8 -22 -17 -10 -17 -10 -17 -11 -1
0 37 34 168 44 168 6 0 24 -22 39 -50 15 -27 35 -56 43 -65 14 -14 18 -12 39
19 13 19 26 43 29 54 4 10 15 27 26 37 22 20 22 20 39 -60 18 -92 21 -115 12
-115 -5 0 -14 36 -22 80 -7 44 -15 80 -18 80 -3 0 -24 -32 -46 -70 -22 -39
-43 -70 -47 -70 -4 0 -12 9 -18 19 -5 11 -16 25 -22 33 -7 7 -22 30 -33 51
l-20 38 -12 -48 c-7 -27 -13 -54 -13 -60 0 -23 19 -14 26 12 7 28 19 33 27 11
16 -41 58 -95 71 -90 7 3 24 27 37 54 33 67 37 66 54 -17 6 -28 11 -33 36 -33
33 0 35 9 19 87 -5 26 -15 76 -22 111 -7 34 -16 62 -20 62 -7 0 -61 -81 -87
-132 -17 -34 -27 -35 -42 -5 -24 45 -84 137 -91 137 -4 0 -11 -24 -17 -52z"/>
<path d="M634 584 c-48 -23 -75 -58 -81 -102 -6 -48 20 -109 54 -125 35 -15
39 -1 8 26 -21 18 -29 35 -32 74 -5 43 -2 53 17 71 63 59 132 63 188 11 58
-55 36 -145 -44 -180 -24 -11 -44 -22 -44 -24 0 -2 17 -1 38 2 47 6 98 58 107
107 20 102 -112 189 -211 140z"/>
<path d="M896 592 c-14 -23 2 -47 32 -50 l32 -3 0 -100 0 -99 35 0 35 0 0 100
0 100 28 0 c36 0 40 5 34 35 -4 24 -6 25 -98 25 -51 0 -95 -4 -98 -8z"/>
<path d="M1225 583 c-68 -35 -96 -94 -76 -156 14 -42 66 -94 76 -77 5 8 1 16
-9 22 -46 26 -61 123 -25 157 60 56 129 61 182 15 35 -30 47 -69 34 -111 -12
-39 -30 -56 -83 -83 l-39 -19 40 6 c52 8 80 27 99 68 31 66 17 120 -45 165
-48 34 -104 39 -154 13z"/>
<path d="M1560 589 c0 -6 8 -8 20 -4 19 6 87 -22 77 -32 -3 -2 -15 0 -26 6
-33 18 -85 0 -89 -30 -2 -19 7 -30 42 -54 57 -38 52 -45 -8 -10 -53 31 -64 56
-41 91 9 14 14 29 10 32 -12 12 -45 -39 -45 -68 0 -31 19 -50 75 -76 67 -32
51 -82 -19 -56 -24 10 -33 9 -45 -2 -20 -21 -6 -46 26 -46 l28 1 -25 14 c-23
14 -21 14 31 9 51 -6 58 -4 69 15 6 12 8 31 5 41 -4 12 -2 20 4 20 6 0 11 -16
11 -35 0 -35 -12 -47 -69 -66 -18 -6 -13 -7 19 -3 50 6 80 32 80 71 0 30 -19
51 -79 83 -25 14 -44 30 -41 35 3 6 28 10 55 10 43 0 50 3 53 21 2 17 -5 24
-29 33 -41 14 -89 14 -89 0z"/>
<path d="M1938 493 l-3 -108 -27 0 c-15 0 -35 -8 -44 -17 -17 -16 -16 -18 12
-28 30 -12 90 -5 112 12 8 7 12 46 12 129 l0 119 -30 0 -29 0 -3 -107z"/>
<path d="M2315 586 c-17 -7 -44 -28 -59 -47 -25 -29 -28 -39 -23 -82 5 -56 34
-100 67 -105 23 -4 23 -3 -7 31 -60 68 -51 132 22 174 60 34 108 28 151 -20
25 -27 34 -46 34 -71 0 -42 -39 -93 -87 -112 -43 -19 -42 -24 5 -17 45 7 68
26 93 76 56 109 -76 225 -196 173z"/>
<path d="M640 544 c-42 -30 -51 -47 -46 -87 9 -77 86 -118 153 -81 66 35 82
123 28 158 -39 26 -106 31 -135 10z m122 -31 c25 -22 23 -67 -4 -97 -36 -39
-86 -39 -123 1 -29 33 -30 35 -9 78 22 47 94 57 136 18z"/>
<path d="M1228 543 c-54 -34 -60 -101 -13 -148 46 -47 107 -45 156 5 47 46 35
115 -24 143 -44 21 -85 21 -119 0z m130 -31 c37 -48 -5 -122 -69 -122 -81 0
-109 110 -36 140 30 13 89 2 105 -18z"/>
<path d="M2320 544 c-38 -26 -50 -45 -50 -81 0 -47 43 -93 96 -100 36 -5 45
-1 77 27 20 17 39 40 42 51 9 27 -11 82 -35 97 -36 22 -102 25 -130 6z m123
-35 c62 -75 -62 -165 -128 -93 -29 31 -30 44 -10 84 23 45 103 50 138 9z"/>
</g>
</svg>
